<svg xmlns="http://www.w3.org/2000/svg" viewBox="0 0 500 57" height="57" width="500" style="background: rgba(0,0,0,0.00);"><defs><clipPath id="ClipPath-1"><rect id="_a0" width="432.4" height="57" fill="#a8a29e" transform="translate(-312.5,28.5) translate(0,0) translate(-191.6,-28.5)"/></clipPath></defs><path fill="#a8a29e" d="M167.9 39c-7.5 0-16.7-7-17.1-7.3c-4.2-3.5-8.4-6.7-14.7-6.7c-6.8 0-14.9 6.6-14.9 6.7l-0.7 .5c-4.5 3.5-8.7 6.8-16.1 6.8c-7.5 0-16.7-7-17.1-7.3c-4.2-3.5-8.4-6.7-14.7-6.7c-6.8 0-14.8 6.6-14.9 6.7l-0.7 .5c-5 3.8-9 6.8-16.1 6.8c-7.5 0-16.7-7-17-7.3c-4.2-3.5-8.5-6.7-14.7-6.7c-6.9 0-14.9 6.6-15 6.7l-0.7 .5c-4.4 3.5-8.6 6.8-16.1 6.8c-7.5 0-16.6-7-17-7.3c-4.2-3.5-8.5-6.7-14.7-6.7c-6.2 0-11.9 2.5-14.8 6.5c-0.4 .5-1.2 .7-1.9 .4c-0.7-0.3-1-0.9-0.6-1.4c3.4-4.6 10-7.5 17.3-7.5c7.4 0 12.3 3.6 16.8 7.3c2.3 1.9 9.7 6.7 14.9 6.7c6.2 0 9.7-2.7 14-6.2l.7-0.5c.3-0.3 8.9-7.3 17.1-7.3c7.4 0 12.3 3.6 16.7 7.3c2.4 1.9 9.8 6.7 15 6.7c5.9 0 9.1-2.5 14.1-6.2l.6-0.5c.3-0.3 8.9-7.3 17-7.3c7.5 0 12.4 3.6 16.8 7.3c2.4 1.8 9.8 6.7 15 6.7c6.2 0 9.6-2.7 14-6.2l.7-0.5c.3-0.3 8.9-7.3 17-7.3c7.5 0 12.4 3.6 16.8 7.3c2.4 1.8 9.8 6.6 15 6.6c5.9 0 11.5-2.3 14.5-6c.4-0.5 1.2-0.7 1.9-0.4c.7 .3 .9 .9 .5 1.4c-3.5 4.4-10 7.1-16.9 7.1Z" clip-path="url(#ClipPath-1)" transform="translate(164.3,31) translate(-92.5,-31)"/><g transform="translate(333.4,28.5) translate(-207,-28.5)"><g id="Group" transform="translate(-89.5,28.5) translate(0,0) translate(-214.9,-29.1)"><path fill="none" stroke="#a8a29e" stroke-width="2.3" stroke-linecap="round" stroke-linejoin="round" d="M190 37.4c-3.7 2.8-11.9 17.8-9.7 18.2c2.3 .5 38.2-15.2 56.7-32c1.2-1 14.4-11.6 12.8-12.9c-1.1-0.9-17.8 2.4-19.7 2.9" transform="translate(214.9,33.1) translate(-214.9,-33.1)"/><path fill="none" stroke="#a8a29e" stroke-width="2.3" stroke-opacity=".9" stroke-linecap="round" stroke-linejoin="round" d="M193.1 32.5c6.4 .3 13.9-2.4 19.4-5.3c6.9-3.7 13.4-8.8 14.3-12.3c1.5-6.6-16.6-16.3-26.7-10.8c-6.9 3.7-13.5 11.4-7.3 28.4" transform="translate(208.6,18.1) translate(-208.6,-18.1)"/><path fill="none" stroke="#a8a29e" stroke-width="2.3" stroke-opacity=".9" stroke-linecap="round" stroke-linejoin="round" d="M241.5 20.1c.7 1.1 1.7 2 2 3.4c.4 2.5-44.8 32.4-50.4 31.4" transform="translate(218.3,37.7) translate(-218.3,-37.7)"/></g></g>
</svg>
